<mxfile host="app.diagrams.net" modified="2023-02-25T02:07:28.909Z" agent="5.0 (Macintosh; Intel Mac OS X 10_15_7) AppleWebKit/537.36 (KHTML, like Gecko) Chrome/109.0.0.0 Safari/537.36" etag="qmLp11nubcW3r5whPFkq" version="20.8.23" type="github">
  <diagram name="Página-1" id="DT3uVaq06OHyXsRy0isz">
    <mxGraphModel dx="954" dy="540" grid="1" gridSize="10" guides="1" tooltips="1" connect="1" arrows="1" fold="1" page="1" pageScale="1" pageWidth="827" pageHeight="1169" math="0" shadow="0">
      <root>
        <mxCell id="0" />
        <mxCell id="1" parent="0" />
        <mxCell id="UEoSz3fRGiwPIZFETIFo-4" style="edgeStyle=orthogonalEdgeStyle;rounded=0;orthogonalLoop=1;jettySize=auto;html=1;exitX=1;exitY=0.5;exitDx=0;exitDy=0;exitPerimeter=0;" edge="1" parent="1" source="UEoSz3fRGiwPIZFETIFo-1" target="UEoSz3fRGiwPIZFETIFo-5">
          <mxGeometry relative="1" as="geometry">
            <mxPoint x="380" y="150" as="targetPoint" />
          </mxGeometry>
        </mxCell>
        <mxCell id="UEoSz3fRGiwPIZFETIFo-1" value="Início" style="strokeWidth=2;html=1;shape=mxgraph.flowchart.terminator;whiteSpace=wrap;" vertex="1" parent="1">
          <mxGeometry x="230" y="120" width="100" height="60" as="geometry" />
        </mxCell>
        <mxCell id="UEoSz3fRGiwPIZFETIFo-3" value="Fim" style="strokeWidth=2;html=1;shape=mxgraph.flowchart.terminator;whiteSpace=wrap;" vertex="1" parent="1">
          <mxGeometry x="240" y="1000" width="100" height="60" as="geometry" />
        </mxCell>
        <mxCell id="UEoSz3fRGiwPIZFETIFo-6" style="edgeStyle=orthogonalEdgeStyle;rounded=0;orthogonalLoop=1;jettySize=auto;html=1;exitX=0.5;exitY=1;exitDx=0;exitDy=0;exitPerimeter=0;" edge="1" parent="1" source="UEoSz3fRGiwPIZFETIFo-5" target="UEoSz3fRGiwPIZFETIFo-7">
          <mxGeometry relative="1" as="geometry">
            <mxPoint x="465" y="220" as="targetPoint" />
          </mxGeometry>
        </mxCell>
        <mxCell id="UEoSz3fRGiwPIZFETIFo-5" value="CALCULADORA DE PRESTAÇÕES" style="strokeWidth=2;html=1;shape=mxgraph.flowchart.display;whiteSpace=wrap;" vertex="1" parent="1">
          <mxGeometry x="380" y="120" width="170" height="60" as="geometry" />
        </mxCell>
        <mxCell id="UEoSz3fRGiwPIZFETIFo-13" style="edgeStyle=orthogonalEdgeStyle;rounded=0;orthogonalLoop=1;jettySize=auto;html=1;entryX=0.5;entryY=0;entryDx=0;entryDy=0;" edge="1" parent="1" source="UEoSz3fRGiwPIZFETIFo-7" target="UEoSz3fRGiwPIZFETIFo-8">
          <mxGeometry relative="1" as="geometry" />
        </mxCell>
        <mxCell id="UEoSz3fRGiwPIZFETIFo-7" value="Digite o valor inicial" style="strokeWidth=2;html=1;shape=mxgraph.flowchart.display;whiteSpace=wrap;" vertex="1" parent="1">
          <mxGeometry x="380" y="230" width="170" height="60" as="geometry" />
        </mxCell>
        <mxCell id="UEoSz3fRGiwPIZFETIFo-14" style="edgeStyle=orthogonalEdgeStyle;rounded=0;orthogonalLoop=1;jettySize=auto;html=1;exitX=0.5;exitY=1;exitDx=0;exitDy=0;" edge="1" parent="1" source="UEoSz3fRGiwPIZFETIFo-8" target="UEoSz3fRGiwPIZFETIFo-15">
          <mxGeometry relative="1" as="geometry">
            <mxPoint x="465" y="450" as="targetPoint" />
          </mxGeometry>
        </mxCell>
        <mxCell id="UEoSz3fRGiwPIZFETIFo-8" value="Leia o valor inicial" style="html=1;strokeWidth=2;shape=manualInput;whiteSpace=wrap;rounded=1;size=26;arcSize=11;" vertex="1" parent="1">
          <mxGeometry x="390" y="340" width="150" height="60" as="geometry" />
        </mxCell>
        <mxCell id="UEoSz3fRGiwPIZFETIFo-16" style="edgeStyle=orthogonalEdgeStyle;rounded=0;orthogonalLoop=1;jettySize=auto;html=1;exitX=0.5;exitY=1;exitDx=0;exitDy=0;exitPerimeter=0;" edge="1" parent="1" source="UEoSz3fRGiwPIZFETIFo-15" target="UEoSz3fRGiwPIZFETIFo-17">
          <mxGeometry relative="1" as="geometry">
            <mxPoint x="465" y="570" as="targetPoint" />
          </mxGeometry>
        </mxCell>
        <mxCell id="UEoSz3fRGiwPIZFETIFo-15" value="Digite o valor da taxa" style="strokeWidth=2;html=1;shape=mxgraph.flowchart.display;whiteSpace=wrap;" vertex="1" parent="1">
          <mxGeometry x="390" y="450" width="150" height="60" as="geometry" />
        </mxCell>
        <mxCell id="UEoSz3fRGiwPIZFETIFo-18" style="edgeStyle=orthogonalEdgeStyle;rounded=0;orthogonalLoop=1;jettySize=auto;html=1;exitX=0.5;exitY=1;exitDx=0;exitDy=0;" edge="1" parent="1" source="UEoSz3fRGiwPIZFETIFo-17" target="UEoSz3fRGiwPIZFETIFo-19">
          <mxGeometry relative="1" as="geometry">
            <mxPoint x="465" y="650" as="targetPoint" />
          </mxGeometry>
        </mxCell>
        <mxCell id="UEoSz3fRGiwPIZFETIFo-17" value="Leia o valor da taxa" style="html=1;strokeWidth=2;shape=manualInput;whiteSpace=wrap;rounded=1;size=26;arcSize=11;" vertex="1" parent="1">
          <mxGeometry x="400" y="540" width="130" height="60" as="geometry" />
        </mxCell>
        <mxCell id="UEoSz3fRGiwPIZFETIFo-31" value="" style="edgeStyle=orthogonalEdgeStyle;rounded=0;orthogonalLoop=1;jettySize=auto;html=1;" edge="1" parent="1" source="UEoSz3fRGiwPIZFETIFo-19" target="UEoSz3fRGiwPIZFETIFo-30">
          <mxGeometry relative="1" as="geometry" />
        </mxCell>
        <mxCell id="UEoSz3fRGiwPIZFETIFo-19" value="Digite a quantidade de dias atrasados" style="strokeWidth=2;html=1;shape=mxgraph.flowchart.display;whiteSpace=wrap;" vertex="1" parent="1">
          <mxGeometry x="380" y="650" width="170" height="60" as="geometry" />
        </mxCell>
        <mxCell id="UEoSz3fRGiwPIZFETIFo-28" style="edgeStyle=orthogonalEdgeStyle;rounded=0;orthogonalLoop=1;jettySize=auto;html=1;entryX=1;entryY=0.5;entryDx=0;entryDy=0;entryPerimeter=0;" edge="1" parent="1" source="UEoSz3fRGiwPIZFETIFo-21" target="UEoSz3fRGiwPIZFETIFo-3">
          <mxGeometry relative="1" as="geometry" />
        </mxCell>
        <mxCell id="UEoSz3fRGiwPIZFETIFo-21" value="&lt;br&gt;Mostre: &quot;O valor inicial é &quot;, valor inicial, &quot; e o valor reajustado com juros é &quot;, resultado" style="html=1;strokeWidth=2;shape=manualInput;whiteSpace=wrap;rounded=1;size=26;arcSize=11;" vertex="1" parent="1">
          <mxGeometry x="380" y="970" width="170" height="100" as="geometry" />
        </mxCell>
        <mxCell id="UEoSz3fRGiwPIZFETIFo-29" style="edgeStyle=orthogonalEdgeStyle;rounded=0;orthogonalLoop=1;jettySize=auto;html=1;entryX=0.5;entryY=0;entryDx=0;entryDy=0;" edge="1" parent="1" source="UEoSz3fRGiwPIZFETIFo-22" target="UEoSz3fRGiwPIZFETIFo-21">
          <mxGeometry relative="1" as="geometry" />
        </mxCell>
        <mxCell id="UEoSz3fRGiwPIZFETIFo-22" value="resultado = valorInicial + (valorInicial * ((valorTaxa/100) * quantidadeDias))" style="rounded=1;whiteSpace=wrap;html=1;absoluteArcSize=1;arcSize=14;strokeWidth=2;" vertex="1" parent="1">
          <mxGeometry x="350" y="830" width="230" height="90" as="geometry" />
        </mxCell>
        <mxCell id="UEoSz3fRGiwPIZFETIFo-32" value="" style="edgeStyle=orthogonalEdgeStyle;rounded=0;orthogonalLoop=1;jettySize=auto;html=1;" edge="1" parent="1" source="UEoSz3fRGiwPIZFETIFo-30" target="UEoSz3fRGiwPIZFETIFo-22">
          <mxGeometry relative="1" as="geometry" />
        </mxCell>
        <mxCell id="UEoSz3fRGiwPIZFETIFo-30" value="Leia a quantidade de dias" style="html=1;strokeWidth=2;shape=manualInput;whiteSpace=wrap;rounded=1;size=26;arcSize=11;" vertex="1" parent="1">
          <mxGeometry x="360" y="740" width="210" height="60" as="geometry" />
        </mxCell>
      </root>
    </mxGraphModel>
  </diagram>
</mxfile>
